<?xml version="1.0" encoding="UTF-8"?>
<svg width="1778" height="1640" viewBox="0 0 1778 1640" xmlns="http://www.w3.org/2000/svg" style="font-family:var(--archik-font, system-ui)"><rect x="0" y="0" width="1778" height="1640" fill="#050912"/><defs><marker id="seq-arrow-filled" viewBox="0 0 10 10" refX="10" refY="5" markerWidth="6" markerHeight="6" orient="auto-start-reverse"><path d="M 0 0 L 10 5 L 0 10 z" fill="context-stroke"></path></marker><marker id="seq-arrow-open" viewBox="0 0 12 12" refX="11" refY="6" markerWidth="7" markerHeight="7" orient="auto-start-reverse"><path d="M 1 1 L 11 6 L 1 11" fill="none" stroke="context-stroke" stroke-width="1.5" stroke-linejoin="round"></path></marker></defs><line x1="150" y1="56" x2="150" y2="1640" stroke="#2c3e63" stroke-width="1" stroke-dasharray="4 4" opacity="0.5"></line><line x1="314" y1="56" x2="314" y2="1640" stroke="#2c3e63" stroke-width="1" stroke-dasharray="4 4" opacity="0.5"></line><line x1="474" y1="56" x2="474" y2="1640" stroke="#2c3e63" stroke-width="1" stroke-dasharray="4 4" opacity="0.5"></line><line x1="642" y1="56" x2="642" y2="1640" stroke="#2c3e63" stroke-width="1" stroke-dasharray="4 4" opacity="0.5"></line><line x1="810" y1="56" x2="810" y2="1640" stroke="#2c3e63" stroke-width="1" stroke-dasharray="4 4" opacity="0.5"></line><line x1="974" y1="56" x2="974" y2="1640" stroke="#2c3e63" stroke-width="1" stroke-dasharray="4 4" opacity="0.5"></line><line x1="1162" y1="56" x2="1162" y2="1640" stroke="#2c3e63" stroke-width="1" stroke-dasharray="4 4" opacity="0.5"></line><line x1="1346" y1="56" x2="1346" y2="1640" stroke="#2c3e63" stroke-width="1" stroke-dasharray="4 4" opacity="0.5"></line><line x1="1506" y1="56" x2="1506" y2="1640" stroke="#2c3e63" stroke-width="1" stroke-dasharray="4 4" opacity="0.5"></line><line x1="1666" y1="56" x2="1666" y2="1640" stroke="#2c3e63" stroke-width="1" stroke-dasharray="4 4" opacity="0.5"></line><g transform="translate(86, 10)" opacity="1"><rect width="128" height="36" rx="8" fill="#0c1426" stroke="#38bdf8" stroke-width="1.4"></rect><g transform="translate(12, 11)"><svg xmlns="http://www.w3.org/2000/svg" width="14" height="14" viewBox="0 0 24 24" fill="none" stroke="#38bdf8" stroke-width="1.5" stroke-linecap="round" stroke-linejoin="round" class="lucide lucide-server" aria-hidden="true"><rect width="20" height="8" x="2" y="2" rx="2" ry="2"></rect><rect width="20" height="8" x="2" y="14" rx="2" ry="2"></rect><line x1="6" x2="6.01" y1="6" y2="6"></line><line x1="6" x2="6.01" y1="18" y2="18"></line></svg></g><text x="74" y="22" text-anchor="middle" font-size="12" font-weight="500" fill="#e6edf7" font-family="inherit">leanlab-cli</text></g><g transform="translate(250, 10)" opacity="1"><rect width="128" height="36" rx="8" fill="#0c1426" stroke="#38bdf8" stroke-width="1.4"></rect><g transform="translate(12, 11)"><svg xmlns="http://www.w3.org/2000/svg" width="14" height="14" viewBox="0 0 24 24" fill="none" stroke="#38bdf8" stroke-width="1.5" stroke-linecap="round" stroke-linejoin="round" class="lucide lucide-server" aria-hidden="true"><rect width="20" height="8" x="2" y="2" rx="2" ry="2"></rect><rect width="20" height="8" x="2" y="14" rx="2" ry="2"></rect><line x1="6" x2="6.01" y1="6" y2="6"></line><line x1="6" x2="6.01" y1="18" y2="18"></line></svg></g><text x="74" y="22" text-anchor="middle" font-size="12" font-weight="500" fill="#e6edf7" font-family="inherit">engineer</text></g><g transform="translate(410, 10)" opacity="1"><rect width="128" height="36" rx="8" fill="#0c1426" stroke="#a21caf" stroke-width="1.4"></rect><g transform="translate(12, 11)"><svg width="14" height="14" viewBox="0 0 24 24" fill="none" stroke="#a21caf" stroke-width="1.5" stroke-linecap="round" stroke-linejoin="round" aria-hidden="true"><rect x="3" y="3" width="18" height="18" rx="3.5" ry="3.5"></rect><line x1="9" y1="9" x2="9" y2="13"></line><line x1="15" y1="9" x2="15" y2="13"></line><circle cx="12" cy="16.5" r="1" fill="#a21caf" stroke="none"></circle></svg></g><text x="74" y="22" text-anchor="middle" font-size="12" font-weight="500" fill="#e6edf7" font-family="inherit">agent-port</text></g><g transform="translate(578, 10)" opacity="1"><rect width="128" height="36" rx="8" fill="#0c1426" stroke="#c026d3" stroke-width="1.4"></rect><g transform="translate(12, 11)"><svg xmlns="http://www.w3.org/2000/svg" width="14" height="14" viewBox="0 0 24 24" fill="none" stroke="#c026d3" stroke-width="1.5" stroke-linecap="round" stroke-linejoin="round" class="lucide lucide-cable" aria-hidden="true"><path d="M17 19a1 1 0 0 1-1-1v-2a2 2 0 0 1 2-2h2a2 2 0 0 1 2 2v2a1 1 0 0 1-1 1z"></path><path d="M17 21v-2"></path><path d="M19 14V6.5a1 1 0 0 0-7 0v11a1 1 0 0 1-7 0V10"></path><path d="M21 21v-2"></path><path d="M3 5V3"></path><path d="M4 10a2 2 0 0 1-2-2V6a1 1 0 0 1 1-1h4a1 1 0 0 1 1 1v2a2 2 0 0 1-2 2z"></path><path d="M7 5V3"></path></svg></g><text x="74" y="22" text-anchor="middle" font-size="12" font-weight="500" fill="#e6edf7" font-family="inherit">claude-agent</text></g><g transform="translate(746, 10)" opacity="1"><rect width="128" height="36" rx="8" fill="#0c1426" stroke="#94a3b8" stroke-width="1.4"></rect><g transform="translate(12, 11)"><svg xmlns="http://www.w3.org/2000/svg" width="14" height="14" viewBox="0 0 24 24" fill="none" stroke="#94a3b8" stroke-width="1.5" stroke-linecap="round" stroke-linejoin="round" class="lucide lucide-external-link" aria-hidden="true"><path d="M15 3h6v6"></path><path d="M10 14 21 3"></path><path d="M18 13v6a2 2 0 0 1-2 2H5a2 2 0 0 1-2-2V8a2 2 0 0 1 2-2h6"></path></svg></g><text x="74" y="22" text-anchor="middle" font-size="12" font-weight="500" fill="#e6edf7" font-family="inherit">claude</text></g><g transform="translate(910, 10)" opacity="1"><rect width="128" height="36" rx="8" fill="#0c1426" stroke="#38bdf8" stroke-width="1.4"></rect><g transform="translate(12, 11)"><svg xmlns="http://www.w3.org/2000/svg" width="14" height="14" viewBox="0 0 24 24" fill="none" stroke="#38bdf8" stroke-width="1.5" stroke-linecap="round" stroke-linejoin="round" class="lucide lucide-server" aria-hidden="true"><rect width="20" height="8" x="2" y="2" rx="2" ry="2"></rect><rect width="20" height="8" x="2" y="14" rx="2" ry="2"></rect><line x1="6" x2="6.01" y1="6" y2="6"></line><line x1="6" x2="6.01" y1="18" y2="18"></line></svg></g><text x="74" y="22" text-anchor="middle" font-size="12" font-weight="500" fill="#e6edf7" font-family="inherit">gate-runner</text></g><g transform="translate(1084, 10)" opacity="1"><rect width="156" height="36" rx="8" fill="#0c1426" stroke="#34d399" stroke-width="1.4"></rect><g transform="translate(12, 11)"><svg xmlns="http://www.w3.org/2000/svg" width="14" height="14" viewBox="0 0 24 24" fill="none" stroke="#34d399" stroke-width="1.5" stroke-linecap="round" stroke-linejoin="round" class="lucide lucide-database" aria-hidden="true"><ellipse cx="12" cy="5" rx="9" ry="3"></ellipse><path d="M3 5V19A9 3 0 0 0 21 19V5"></path><path d="M3 12A9 3 0 0 0 21 12"></path></svg></g><text x="88" y="22" text-anchor="middle" font-size="12" font-weight="500" fill="#e6edf7" font-family="inherit">acceptance-tests</text></g><g transform="translate(1282, 10)" opacity="1"><rect width="128" height="36" rx="8" fill="#0c1426" stroke="#38bdf8" stroke-width="1.4"></rect><g transform="translate(12, 11)"><svg xmlns="http://www.w3.org/2000/svg" width="14" height="14" viewBox="0 0 24 24" fill="none" stroke="#38bdf8" stroke-width="1.5" stroke-linecap="round" stroke-linejoin="round" class="lucide lucide-server" aria-hidden="true"><rect width="20" height="8" x="2" y="2" rx="2" ry="2"></rect><rect width="20" height="8" x="2" y="14" rx="2" ry="2"></rect><line x1="6" x2="6.01" y1="6" y2="6"></line><line x1="6" x2="6.01" y1="18" y2="18"></line></svg></g><text x="74" y="22" text-anchor="middle" font-size="12" font-weight="500" fill="#e6edf7" font-family="inherit">reviewer</text></g><g transform="translate(1442, 10)" opacity="1"><rect width="128" height="36" rx="8" fill="#0c1426" stroke="#38bdf8" stroke-width="1.4"></rect><g transform="translate(12, 11)"><svg xmlns="http://www.w3.org/2000/svg" width="14" height="14" viewBox="0 0 24 24" fill="none" stroke="#38bdf8" stroke-width="1.5" stroke-linecap="round" stroke-linejoin="round" class="lucide lucide-server" aria-hidden="true"><rect width="20" height="8" x="2" y="2" rx="2" ry="2"></rect><rect width="20" height="8" x="2" y="14" rx="2" ry="2"></rect><line x1="6" x2="6.01" y1="6" y2="6"></line><line x1="6" x2="6.01" y1="18" y2="18"></line></svg></g><text x="74" y="22" text-anchor="middle" font-size="12" font-weight="500" fill="#e6edf7" font-family="inherit">techlead</text></g><g transform="translate(1602, 10)" opacity="1"><rect width="128" height="36" rx="8" fill="#0c1426" stroke="#34d399" stroke-width="1.4"></rect><g transform="translate(12, 11)"><svg xmlns="http://www.w3.org/2000/svg" width="14" height="14" viewBox="0 0 24 24" fill="none" stroke="#34d399" stroke-width="1.5" stroke-linecap="round" stroke-linejoin="round" class="lucide lucide-database" aria-hidden="true"><ellipse cx="12" cy="5" rx="9" ry="3"></ellipse><path d="M3 5V19A9 3 0 0 0 21 19V5"></path><path d="M3 12A9 3 0 0 0 21 12"></path></svg></g><text x="74" y="22" text-anchor="middle" font-size="12" font-weight="500" fill="#e6edf7" font-family="inherit">playbook</text></g><g transform="translate(0, 56)"><rect x="310" y="96" width="8" height="1408" fill="#0c1426" stroke="#2c3e63" stroke-width="1" rx="2"></rect><g opacity="1"><path d="M 32 24 L 422 24 L 432 34 L 432 88 L 32 88 Z" fill="#0c1426" stroke="#2c3e63" stroke-width="1.2"></path><path d="M 422 24 L 422 34 L 432 34" fill="none" stroke="#2c3e63" stroke-width="1.2"></path><text x="40" y="43" font-size="11" fill="#e6edf7" font-family="inherit">Operator builds a spec&#x27;d task — the worktree already holds</text><text x="40" y="56" font-size="11" fill="#e6edf7" font-family="inherit">the locked acceptance tests.</text></g><g opacity="1"><line x1="150" y1="96" x2="308" y2="96" stroke="#cbd5e1" stroke-width="1.4" marker-end="url(#seq-arrow-filled)"></line><text x="232" y="90" text-anchor="middle" font-size="11" fill="#e6edf7" font-family="inherit">build(task, max-attempts, reviewers)</text></g><g opacity="1"><line x1="314" y1="152" x2="1660" y2="152" stroke="#cbd5e1" stroke-width="1.4" marker-end="url(#seq-arrow-filled)"></line><text x="990" y="146" text-anchor="middle" font-size="11" fill="#e6edf7" font-family="inherit">read PLAYBOOK (injected into the engineer prompt)</text></g><g opacity="1"><rect x="138" y="208" width="1540" height="1080" rx="4" fill="none" stroke="#10b981" stroke-width="1.2" opacity="0.6"></rect><rect x="138" y="208" width="36" height="18" rx="4" fill="#10b981" opacity="0.8"></rect><text x="144" y="221" font-size="10" font-weight="600" fill="#fff" font-family="inherit">loop</text><text x="180" y="221" font-size="10" fill="#10b981" font-family="inherit">each round, until merged or max-attempts reached</text><g><g opacity="1"><line x1="314" y1="232" x2="468" y2="232" stroke="#cbd5e1" stroke-width="1.4" marker-end="url(#seq-arrow-filled)"></line><text x="394" y="226" text-anchor="middle" font-size="11" fill="#e6edf7" font-family="inherit">implement / revise the change (read spec + locked tests)</text></g><g opacity="1"><line x1="474" y1="288" x2="636" y2="288" stroke="#cbd5e1" stroke-width="1.4" marker-end="url(#seq-arrow-filled)"></line><text x="558" y="282" text-anchor="middle" font-size="11" fill="#e6edf7" font-family="inherit">run_plain(engineer prompt [+ feedback])</text></g><g opacity="1"><line x1="642" y1="344" x2="804" y2="344" stroke="#cbd5e1" stroke-width="1.4" marker-end="url(#seq-arrow-filled)"></line><text x="726" y="338" text-anchor="middle" font-size="11" fill="#e6edf7" font-family="inherit">claude -p (edits files in the worktree)</text></g><g opacity="1"><line x1="474" y1="400" x2="320" y2="400" stroke="#cbd5e1" stroke-width="1.4" stroke-dasharray="4 4" marker-end="url(#seq-arrow-open)"></line><text x="394" y="394" text-anchor="middle" font-size="11" fill="#e6edf7" font-family="inherit">change made</text></g><g opacity="1"><line x1="314" y1="456" x2="968" y2="456" stroke="#cbd5e1" stroke-width="1.4" marker-end="url(#seq-arrow-filled)"></line><text x="644" y="450" text-anchor="middle" font-size="11" fill="#e6edf7" font-family="inherit">restore pristine tests, then run the gate</text></g><g opacity="1"><line x1="974" y1="512" x2="1156" y2="512" stroke="#cbd5e1" stroke-width="1.4" marker-end="url(#seq-arrow-filled)"></line><text x="1068" y="506" text-anchor="middle" font-size="11" fill="#e6edf7" font-family="inherit">run locked acceptance + project tests</text></g><g opacity="1"><line x1="974" y1="568" x2="320" y2="568" stroke="#cbd5e1" stroke-width="1.4" stroke-dasharray="4 4" marker-end="url(#seq-arrow-open)"></line><text x="644" y="562" text-anchor="middle" font-size="11" fill="#e6edf7" font-family="inherit">pass | fail</text></g><g opacity="1"><rect x="144" y="624" width="1528" height="632" rx="4" fill="none" stroke="#6366f1" stroke-width="1.2" opacity="0.6"></rect><rect x="144" y="624" width="36" height="18" rx="4" fill="#6366f1" opacity="0.8"></rect><text x="150" y="637" font-size="10" font-weight="600" fill="#fff" font-family="inherit">alt</text><text x="186" y="637" font-size="10" fill="#6366f1" font-family="inherit">gate passed</text><g><text x="150" y="660" font-size="10" fill="#6366f1" font-family="inherit">[gate green]</text><g opacity="1"><line x1="314" y1="648" x2="968" y2="648" stroke="#cbd5e1" stroke-width="1.4" marker-end="url(#seq-arrow-filled)"></line><text x="644" y="642" text-anchor="middle" font-size="11" fill="#e6edf7" font-family="inherit">honesty checks: tests untouched? pass w/o engineer fixtures?</text></g><g opacity="1"><line x1="974" y1="704" x2="1156" y2="704" stroke="#cbd5e1" stroke-width="1.4" marker-end="url(#seq-arrow-filled)"></line><text x="1068" y="698" text-anchor="middle" font-size="11" fill="#e6edf7" font-family="inherit">isolated acceptance run (pytest --noconftest)</text></g><g opacity="1"><line x1="974" y1="760" x2="320" y2="760" stroke="#cbd5e1" stroke-width="1.4" stroke-dasharray="4 4" marker-end="url(#seq-arrow-open)"></line><text x="644" y="754" text-anchor="middle" font-size="11" fill="#e6edf7" font-family="inherit">honest | tampered / gamed</text></g><g opacity="1"><rect x="150" y="816" width="1516" height="408" rx="4" fill="none" stroke="#6366f1" stroke-width="1.2" opacity="0.6"></rect><rect x="150" y="816" width="36" height="18" rx="4" fill="#6366f1" opacity="0.8"></rect><text x="156" y="829" font-size="10" font-weight="600" fill="#fff" font-family="inherit">alt</text><text x="192" y="829" font-size="10" fill="#6366f1" font-family="inherit">change is honest</text><g><text x="156" y="852" font-size="10" fill="#6366f1" font-family="inherit">[honest]</text><g opacity="1"><path d="M 1146 840 L 1536 840 L 1546 850 L 1546 904 L 1146 904 Z" fill="#0c1426" stroke="#2c3e63" stroke-width="1.2"></path><path d="M 1536 840 L 1536 850 L 1546 850" fill="none" stroke="#2c3e63" stroke-width="1.2"></path><text x="1154" y="859" font-size="11" fill="#e6edf7" font-family="inherit">Adversarial panel: N reviewers, distinct lenses; merge only</text><text x="1154" y="872" font-size="11" fill="#e6edf7" font-family="inherit">if ALL approve.</text></g><g opacity="1"><rect x="150" y="912" width="1516" height="148" rx="4" fill="none" stroke="#10b981" stroke-width="1.2" opacity="0.6"></rect><rect x="150" y="912" width="36" height="18" rx="4" fill="#10b981" opacity="0.8"></rect><text x="156" y="925" font-size="10" font-weight="600" fill="#fff" font-family="inherit">loop</text><text x="192" y="925" font-size="10" fill="#10b981" font-family="inherit">for each reviewer lens (correctness / spec / security / robustness)</text><g><g opacity="1"><line x1="1346" y1="936" x2="480" y2="936" stroke="#cbd5e1" stroke-width="1.4" marker-end="url(#seq-arrow-filled)"></line><text x="910" y="930" text-anchor="middle" font-size="11" fill="#e6edf7" font-family="inherit">run_structured(review prompt + lens)</text></g><g opacity="1"><line x1="474" y1="992" x2="636" y2="992" stroke="#cbd5e1" stroke-width="1.4" marker-end="url(#seq-arrow-filled)"></line><text x="558" y="986" text-anchor="middle" font-size="11" fill="#e6edf7" font-family="inherit">claude -p (fresh, independent session)</text></g></g></g><g opacity="1"><line x1="1346" y1="1080" x2="320" y2="1080" stroke="#cbd5e1" stroke-width="1.4" stroke-dasharray="4 4" marker-end="url(#seq-arrow-open)"></line><text x="830" y="1074" text-anchor="middle" font-size="11" fill="#e6edf7" font-family="inherit">quorum: all approved | changes requested</text></g><line x1="150" y1="1136" x2="1666" y2="1136" stroke="#6366f1" stroke-width="1" stroke-dasharray="4 2" opacity="0.5"></line></g><g><text x="156" y="1152" font-size="10" fill="#6366f1" font-family="inherit">[tampered / gamed]</text><g opacity="1"><path d="M 125.75 1140 L 492.25 1140 L 502.25 1150 L 502.25 1204 L 125.75 1204 Z" fill="#0c1426" stroke="#2c3e63" stroke-width="1.2"></path><path d="M 492.25 1140 L 492.25 1150 L 502.25 1150" fill="none" stroke="#2c3e63" stroke-width="1.2"></path><text x="133.75" y="1159" font-size="11" fill="#e6edf7" font-family="inherit">Reject the attempt, feed the reason back, loop.</text></g></g></g></g></g></g></g><g opacity="1"><path d="M 314 1308 L 346 1308 L 346 1328 L 314 1328" fill="none" stroke="#cbd5e1" stroke-width="1.4" marker-end="url(#seq-arrow-filled)"></path><text x="352" y="1322" font-size="11" fill="#e6edf7" font-family="inherit">commit + merge branch into main</text></g><g opacity="1"><line x1="314" y1="1392" x2="1500" y2="1392" stroke="#cbd5e1" stroke-width="1.4" marker-end="url(#seq-arrow-filled)"></line><text x="910" y="1386" text-anchor="middle" font-size="11" fill="#e6edf7" font-family="inherit">refresh the playbook</text></g><g opacity="1"><line x1="1506" y1="1448" x2="1660" y2="1448" stroke="#cbd5e1" stroke-width="1.4" marker-end="url(#seq-arrow-filled)"></line><text x="1586" y="1442" text-anchor="middle" font-size="11" fill="#e6edf7" font-family="inherit">rewrite PLAYBOOK.md from recent changes</text></g><g opacity="1"><line x1="314" y1="1504" x2="156" y2="1504" stroke="#cbd5e1" stroke-width="1.4" stroke-dasharray="4 4" marker-end="url(#seq-arrow-open)"></line><text x="232" y="1498" text-anchor="middle" font-size="11" fill="#e6edf7" font-family="inherit">merged — task complete</text></g></g></svg>
