<?xml version="1.0" encoding="UTF-8"?>
<svg width="1673" height="1160" viewBox="0 0 1673 1160" xmlns="http://www.w3.org/2000/svg" style="font-family:var(--archik-font, system-ui)"><rect x="0" y="0" width="1673" height="1160" fill="#050912"/><defs><marker id="seq-arrow-filled" viewBox="0 0 10 10" refX="10" refY="5" markerWidth="6" markerHeight="6" orient="auto-start-reverse"><path d="M 0 0 L 10 5 L 0 10 z" fill="context-stroke"></path></marker><marker id="seq-arrow-open" viewBox="0 0 12 12" refX="11" refY="6" markerWidth="7" markerHeight="7" orient="auto-start-reverse"><path d="M 1 1 L 11 6 L 1 11" fill="none" stroke="context-stroke" stroke-width="1.5" stroke-linejoin="round"></path></marker></defs><line x1="349" y1="56" x2="349" y2="1160" stroke="#2c3e63" stroke-width="1" stroke-dasharray="4 4" opacity="0.5"></line><line x1="513" y1="56" x2="513" y2="1160" stroke="#2c3e63" stroke-width="1" stroke-dasharray="4 4" opacity="0.5"></line><line x1="673" y1="56" x2="673" y2="1160" stroke="#2c3e63" stroke-width="1" stroke-dasharray="4 4" opacity="0.5"></line><line x1="841" y1="56" x2="841" y2="1160" stroke="#2c3e63" stroke-width="1" stroke-dasharray="4 4" opacity="0.5"></line><line x1="1033" y1="56" x2="1033" y2="1160" stroke="#2c3e63" stroke-width="1" stroke-dasharray="4 4" opacity="0.5"></line><line x1="1217" y1="56" x2="1217" y2="1160" stroke="#2c3e63" stroke-width="1" stroke-dasharray="4 4" opacity="0.5"></line><line x1="1377" y1="56" x2="1377" y2="1160" stroke="#2c3e63" stroke-width="1" stroke-dasharray="4 4" opacity="0.5"></line><line x1="1549" y1="56" x2="1549" y2="1160" stroke="#2c3e63" stroke-width="1" stroke-dasharray="4 4" opacity="0.5"></line><g transform="translate(285, 10)" opacity="1"><rect width="128" height="36" rx="8" fill="#0c1426" stroke="#38bdf8" stroke-width="1.4"></rect><g transform="translate(12, 11)"><svg xmlns="http://www.w3.org/2000/svg" width="14" height="14" viewBox="0 0 24 24" fill="none" stroke="#38bdf8" stroke-width="1.5" stroke-linecap="round" stroke-linejoin="round" class="lucide lucide-server" aria-hidden="true"><rect width="20" height="8" x="2" y="2" rx="2" ry="2"></rect><rect width="20" height="8" x="2" y="14" rx="2" ry="2"></rect><line x1="6" x2="6.01" y1="6" y2="6"></line><line x1="6" x2="6.01" y1="18" y2="18"></line></svg></g><text x="74" y="22" text-anchor="middle" font-size="12" font-weight="500" fill="#e6edf7" font-family="inherit">leanlab CLI</text></g><g transform="translate(449, 10)" opacity="1"><rect width="128" height="36" rx="8" fill="#0c1426" stroke="#38bdf8" stroke-width="1.4"></rect><g transform="translate(12, 11)"><svg xmlns="http://www.w3.org/2000/svg" width="14" height="14" viewBox="0 0 24 24" fill="none" stroke="#38bdf8" stroke-width="1.5" stroke-linecap="round" stroke-linejoin="round" class="lucide lucide-server" aria-hidden="true"><rect width="20" height="8" x="2" y="2" rx="2" ry="2"></rect><rect width="20" height="8" x="2" y="14" rx="2" ry="2"></rect><line x1="6" x2="6.01" y1="6" y2="6"></line><line x1="6" x2="6.01" y1="18" y2="18"></line></svg></g><text x="74" y="22" text-anchor="middle" font-size="12" font-weight="500" fill="#e6edf7" font-family="inherit">Loop</text></g><g transform="translate(609, 10)" opacity="1"><rect width="128" height="36" rx="8" fill="#0c1426" stroke="#a21caf" stroke-width="1.4"></rect><g transform="translate(12, 11)"><svg width="14" height="14" viewBox="0 0 24 24" fill="none" stroke="#a21caf" stroke-width="1.5" stroke-linecap="round" stroke-linejoin="round" aria-hidden="true"><rect x="3" y="3" width="18" height="18" rx="3.5" ry="3.5"></rect><line x1="9" y1="9" x2="9" y2="13"></line><line x1="15" y1="9" x2="15" y2="13"></line><circle cx="12" cy="16.5" r="1" fill="#a21caf" stroke="none"></circle></svg></g><text x="74" y="22" text-anchor="middle" font-size="12" font-weight="500" fill="#e6edf7" font-family="inherit">Agent port</text></g><g transform="translate(777, 10)" opacity="1"><rect width="128" height="36" rx="8" fill="#0c1426" stroke="#c026d3" stroke-width="1.4"></rect><g transform="translate(12, 11)"><svg xmlns="http://www.w3.org/2000/svg" width="14" height="14" viewBox="0 0 24 24" fill="none" stroke="#c026d3" stroke-width="1.5" stroke-linecap="round" stroke-linejoin="round" class="lucide lucide-cable" aria-hidden="true"><path d="M17 19a1 1 0 0 1-1-1v-2a2 2 0 0 1 2-2h2a2 2 0 0 1 2 2v2a1 1 0 0 1-1 1z"></path><path d="M17 21v-2"></path><path d="M19 14V6.5a1 1 0 0 0-7 0v11a1 1 0 0 1-7 0V10"></path><path d="M21 21v-2"></path><path d="M3 5V3"></path><path d="M4 10a2 2 0 0 1-2-2V6a1 1 0 0 1 1-1h4a1 1 0 0 1 1 1v2a2 2 0 0 1-2 2z"></path><path d="M7 5V3"></path></svg></g><text x="74" y="22" text-anchor="middle" font-size="12" font-weight="500" fill="#e6edf7" font-family="inherit">Claude agent</text></g><g transform="translate(955, 10)" opacity="1"><rect width="156" height="36" rx="8" fill="#0c1426" stroke="#7dd3fc" stroke-width="1.4"></rect><g transform="translate(12, 11)"><svg xmlns="http://www.w3.org/2000/svg" width="14" height="14" viewBox="0 0 24 24" fill="none" stroke="#7dd3fc" stroke-width="1.5" stroke-linecap="round" stroke-linejoin="round" class="lucide lucide-package" aria-hidden="true"><path d="M11 21.73a2 2 0 0 0 2 0l7-4A2 2 0 0 0 21 16V8a2 2 0 0 0-1-1.73l-7-4a2 2 0 0 0-2 0l-7 4A2 2 0 0 0 3 8v8a2 2 0 0 0 1 1.73z"></path><path d="M12 22V12"></path><polyline points="3.29 7 12 12 20.71 7"></polyline><path d="m7.5 4.27 9 5.15"></path></svg></g><text x="88" y="22" text-anchor="middle" font-size="12" font-weight="500" fill="#e6edf7" font-family="inherit">Structured retry</text></g><g transform="translate(1153, 10)" opacity="1"><rect width="128" height="36" rx="8" fill="#0c1426" stroke="#94a3b8" stroke-width="1.4"></rect><g transform="translate(12, 11)"><svg xmlns="http://www.w3.org/2000/svg" width="14" height="14" viewBox="0 0 24 24" fill="none" stroke="#94a3b8" stroke-width="1.5" stroke-linecap="round" stroke-linejoin="round" class="lucide lucide-external-link" aria-hidden="true"><path d="M15 3h6v6"></path><path d="M10 14 21 3"></path><path d="M18 13v6a2 2 0 0 1-2 2H5a2 2 0 0 1-2-2V8a2 2 0 0 1 2-2h6"></path></svg></g><text x="74" y="22" text-anchor="middle" font-size="12" font-weight="500" fill="#e6edf7" font-family="inherit">Claude LLM</text></g><g transform="translate(1313, 10)" opacity="1"><rect width="128" height="36" rx="8" fill="#0c1426" stroke="#38bdf8" stroke-width="1.4"></rect><g transform="translate(12, 11)"><svg xmlns="http://www.w3.org/2000/svg" width="14" height="14" viewBox="0 0 24 24" fill="none" stroke="#38bdf8" stroke-width="1.5" stroke-linecap="round" stroke-linejoin="round" class="lucide lucide-server" aria-hidden="true"><rect width="20" height="8" x="2" y="2" rx="2" ry="2"></rect><rect width="20" height="8" x="2" y="14" rx="2" ry="2"></rect><line x1="6" x2="6.01" y1="6" y2="6"></line><line x1="6" x2="6.01" y1="18" y2="18"></line></svg></g><text x="74" y="22" text-anchor="middle" font-size="12" font-weight="500" fill="#e6edf7" font-family="inherit">Judge</text></g><g transform="translate(1481.5, 10)" opacity="1"><rect width="135" height="36" rx="8" fill="#0c1426" stroke="#34d399" stroke-width="1.4"></rect><g transform="translate(12, 11)"><svg xmlns="http://www.w3.org/2000/svg" width="14" height="14" viewBox="0 0 24 24" fill="none" stroke="#34d399" stroke-width="1.5" stroke-linecap="round" stroke-linejoin="round" class="lucide lucide-database" aria-hidden="true"><ellipse cx="12" cy="5" rx="9" ry="3"></ellipse><path d="M3 5V19A9 3 0 0 0 21 19V5"></path><path d="M3 12A9 3 0 0 0 21 12"></path></svg></g><text x="77.5" y="22" text-anchor="middle" font-size="12" font-weight="500" fill="#e6edf7" font-family="inherit">Results store</text></g><g transform="translate(0, 56)"><rect x="509" y="96" width="8" height="928" fill="#0c1426" stroke="#2c3e63" stroke-width="1" rx="2"></rect><g opacity="1"><path d="M 32 24 L 331 24 L 341 34 L 341 88 L 32 88 Z" fill="#0c1426" stroke="#2c3e63" stroke-width="1.2"></path><path d="M 331 24 L 331 34 L 341 34" fill="none" stroke="#2c3e63" stroke-width="1.2"></path><text x="40" y="43" font-size="11" fill="#e6edf7" font-family="inherit">Operator runs: leanlab run &lt;lab&gt; --n N</text></g><g opacity="1"><line x1="349" y1="96" x2="507" y2="96" stroke="#cbd5e1" stroke-width="1.4" marker-end="url(#seq-arrow-filled)"></line><text x="431" y="90" text-anchor="middle" font-size="11" fill="#e6edf7" font-family="inherit">run(lab, n)</text></g><g opacity="1"><path d="M 313 152 L 703 152 L 713 162 L 713 216 L 313 216 Z" fill="#0c1426" stroke="#2c3e63" stroke-width="1.2"></path><path d="M 703 152 L 703 162 L 713 162" fill="none" stroke="#2c3e63" stroke-width="1.2"></path><text x="321" y="171" font-size="11" fill="#e6edf7" font-family="inherit">Build the Worker prompt: task + memory + Director/Critic</text><text x="321" y="184" font-size="11" fill="#e6edf7" font-family="inherit">notes</text></g><g opacity="1"><line x1="513" y1="224" x2="667" y2="224" stroke="#cbd5e1" stroke-width="1.4" marker-end="url(#seq-arrow-filled)"></line><text x="593" y="218" text-anchor="middle" font-size="11" fill="#e6edf7" font-family="inherit">run(workerPrompt, schema)</text></g><g opacity="1"><line x1="673" y1="280" x2="835" y2="280" stroke="#cbd5e1" stroke-width="1.4" marker-end="url(#seq-arrow-filled)"></line><text x="757" y="274" text-anchor="middle" font-size="11" fill="#e6edf7" font-family="inherit">run(prompt, schema)</text></g><g opacity="1"><rect x="337" y="336" width="1224" height="332" rx="4" fill="none" stroke="#10b981" stroke-width="1.2" opacity="0.6"></rect><rect x="337" y="336" width="36" height="18" rx="4" fill="#10b981" opacity="0.8"></rect><text x="343" y="349" font-size="10" font-weight="600" fill="#fff" font-family="inherit">loop</text><text x="379" y="349" font-size="10" fill="#10b981" font-family="inherit">[until valid JSON, &lt;= max retries]</text><g><g opacity="1"><line x1="841" y1="360" x2="1211" y2="360" stroke="#cbd5e1" stroke-width="1.4" marker-end="url(#seq-arrow-filled)"></line><text x="1029" y="354" text-anchor="middle" font-size="11" fill="#e6edf7" font-family="inherit">claude -p prompt</text></g><g opacity="1"><line x1="1217" y1="416" x2="847" y2="416" stroke="#cbd5e1" stroke-width="1.4" stroke-dasharray="4 4" marker-end="url(#seq-arrow-open)"></line><text x="1029" y="410" text-anchor="middle" font-size="11" fill="#e6edf7" font-family="inherit">assistant reply</text></g><g opacity="1"><line x1="841" y1="472" x2="1027" y2="472" stroke="#cbd5e1" stroke-width="1.4" marker-end="url(#seq-arrow-filled)"></line><text x="937" y="466" text-anchor="middle" font-size="11" fill="#e6edf7" font-family="inherit">validate(reply, schema)</text></g><g opacity="1"><path d="M 1041 528 L 1431 528 L 1441 538 L 1441 592 L 1041 592 Z" fill="#0c1426" stroke="#2c3e63" stroke-width="1.2"></path><path d="M 1431 528 L 1431 538 L 1441 538" fill="none" stroke="#2c3e63" stroke-width="1.2"></path><text x="1049" y="547" font-size="11" fill="#e6edf7" font-family="inherit">On malformed JSON: re-prompt &#x27;reply with valid JSON only&#x27;</text><text x="1049" y="560" font-size="11" fill="#e6edf7" font-family="inherit">and loop</text></g><g opacity="1"><line x1="1033" y1="600" x2="847" y2="600" stroke="#cbd5e1" stroke-width="1.4" stroke-dasharray="4 4" marker-end="url(#seq-arrow-open)"></line><text x="937" y="594" text-anchor="middle" font-size="11" fill="#e6edf7" font-family="inherit">parsed result</text></g></g></g><g opacity="1"><line x1="841" y1="688" x2="679" y2="688" stroke="#cbd5e1" stroke-width="1.4" stroke-dasharray="4 4" marker-end="url(#seq-arrow-open)"></line><text x="757" y="682" text-anchor="middle" font-size="11" fill="#e6edf7" font-family="inherit">{experiment_file, valid, notes}</text></g><g opacity="1"><line x1="673" y1="744" x2="519" y2="744" stroke="#cbd5e1" stroke-width="1.4" stroke-dasharray="4 4" marker-end="url(#seq-arrow-open)"></line><text x="593" y="738" text-anchor="middle" font-size="11" fill="#e6edf7" font-family="inherit">structured result</text></g><g opacity="1"><line x1="513" y1="800" x2="1371" y2="800" stroke="#cbd5e1" stroke-width="1.4" marker-end="url(#seq-arrow-filled)"></line><text x="945" y="794" text-anchor="middle" font-size="11" fill="#e6edf7" font-family="inherit">score(experiment_file)</text></g><g opacity="1"><line x1="1377" y1="856" x2="519" y2="856" stroke="#cbd5e1" stroke-width="1.4" stroke-dasharray="4 4" marker-end="url(#seq-arrow-open)"></line><text x="945" y="850" text-anchor="middle" font-size="11" fill="#e6edf7" font-family="inherit">JSON metrics</text></g><g opacity="1"><line x1="513" y1="912" x2="1543" y2="912" stroke="#cbd5e1" stroke-width="1.4" marker-end="url(#seq-arrow-filled)"></line><text x="1031" y="906" text-anchor="middle" font-size="11" fill="#e6edf7" font-family="inherit">append(record, best_so_far)</text></g><g opacity="1"><line x1="1549" y1="968" x2="519" y2="968" stroke="#cbd5e1" stroke-width="1.4" stroke-dasharray="4 4" marker-end="url(#seq-arrow-open)"></line><text x="1031" y="962" text-anchor="middle" font-size="11" fill="#e6edf7" font-family="inherit">ok</text></g><g opacity="1"><line x1="513" y1="1024" x2="355" y2="1024" stroke="#cbd5e1" stroke-width="1.4" stroke-dasharray="4 4" marker-end="url(#seq-arrow-open)"></line><text x="431" y="1018" text-anchor="middle" font-size="11" fill="#e6edf7" font-family="inherit">done</text></g></g></svg>
