<?xml version="1.0" encoding="UTF-8"?>
<svg width="1184" height="924" viewBox="0 0 1184 924" xmlns="http://www.w3.org/2000/svg" style="font-family:var(--archik-font, system-ui)"><rect x="0" y="0" width="1184" height="924" fill="#050912"/><defs><marker id="seq-arrow-filled" viewBox="0 0 10 10" refX="10" refY="5" markerWidth="6" markerHeight="6" orient="auto-start-reverse"><path d="M 0 0 L 10 5 L 0 10 z" fill="context-stroke"></path></marker><marker id="seq-arrow-open" viewBox="0 0 12 12" refX="11" refY="6" markerWidth="7" markerHeight="7" orient="auto-start-reverse"><path d="M 1 1 L 11 6 L 1 11" fill="none" stroke="context-stroke" stroke-width="1.5" stroke-linejoin="round"></path></marker></defs><line x1="232" y1="56" x2="232" y2="924" stroke="#2c3e63" stroke-width="1" stroke-dasharray="4 4" opacity="0.5"></line><line x1="392" y1="56" x2="392" y2="924" stroke="#2c3e63" stroke-width="1" stroke-dasharray="4 4" opacity="0.5"></line><line x1="560" y1="56" x2="560" y2="924" stroke="#2c3e63" stroke-width="1" stroke-dasharray="4 4" opacity="0.5"></line><line x1="728" y1="56" x2="728" y2="924" stroke="#2c3e63" stroke-width="1" stroke-dasharray="4 4" opacity="0.5"></line><line x1="888" y1="56" x2="888" y2="924" stroke="#2c3e63" stroke-width="1" stroke-dasharray="4 4" opacity="0.5"></line><line x1="1060" y1="56" x2="1060" y2="924" stroke="#2c3e63" stroke-width="1" stroke-dasharray="4 4" opacity="0.5"></line><g transform="translate(168, 10)" opacity="1"><rect width="128" height="36" rx="8" fill="#0c1426" stroke="#38bdf8" stroke-width="1.4"></rect><g transform="translate(12, 11)"><svg xmlns="http://www.w3.org/2000/svg" width="14" height="14" viewBox="0 0 24 24" fill="none" stroke="#38bdf8" stroke-width="1.5" stroke-linecap="round" stroke-linejoin="round" class="lucide lucide-server" aria-hidden="true"><rect width="20" height="8" x="2" y="2" rx="2" ry="2"></rect><rect width="20" height="8" x="2" y="14" rx="2" ry="2"></rect><line x1="6" x2="6.01" y1="6" y2="6"></line><line x1="6" x2="6.01" y1="18" y2="18"></line></svg></g><text x="74" y="22" text-anchor="middle" font-size="12" font-weight="500" fill="#e6edf7" font-family="inherit">Loop</text></g><g transform="translate(328, 10)" opacity="1"><rect width="128" height="36" rx="8" fill="#0c1426" stroke="#a21caf" stroke-width="1.4"></rect><g transform="translate(12, 11)"><svg width="14" height="14" viewBox="0 0 24 24" fill="none" stroke="#a21caf" stroke-width="1.5" stroke-linecap="round" stroke-linejoin="round" aria-hidden="true"><rect x="3" y="3" width="18" height="18" rx="3.5" ry="3.5"></rect><line x1="9" y1="9" x2="9" y2="13"></line><line x1="15" y1="9" x2="15" y2="13"></line><circle cx="12" cy="16.5" r="1" fill="#a21caf" stroke="none"></circle></svg></g><text x="74" y="22" text-anchor="middle" font-size="12" font-weight="500" fill="#e6edf7" font-family="inherit">Agent port</text></g><g transform="translate(496, 10)" opacity="1"><rect width="128" height="36" rx="8" fill="#0c1426" stroke="#c026d3" stroke-width="1.4"></rect><g transform="translate(12, 11)"><svg xmlns="http://www.w3.org/2000/svg" width="14" height="14" viewBox="0 0 24 24" fill="none" stroke="#c026d3" stroke-width="1.5" stroke-linecap="round" stroke-linejoin="round" class="lucide lucide-cable" aria-hidden="true"><path d="M17 19a1 1 0 0 1-1-1v-2a2 2 0 0 1 2-2h2a2 2 0 0 1 2 2v2a1 1 0 0 1-1 1z"></path><path d="M17 21v-2"></path><path d="M19 14V6.5a1 1 0 0 0-7 0v11a1 1 0 0 1-7 0V10"></path><path d="M21 21v-2"></path><path d="M3 5V3"></path><path d="M4 10a2 2 0 0 1-2-2V6a1 1 0 0 1 1-1h4a1 1 0 0 1 1 1v2a2 2 0 0 1-2 2z"></path><path d="M7 5V3"></path></svg></g><text x="74" y="22" text-anchor="middle" font-size="12" font-weight="500" fill="#e6edf7" font-family="inherit">Claude agent</text></g><g transform="translate(664, 10)" opacity="1"><rect width="128" height="36" rx="8" fill="#0c1426" stroke="#94a3b8" stroke-width="1.4"></rect><g transform="translate(12, 11)"><svg xmlns="http://www.w3.org/2000/svg" width="14" height="14" viewBox="0 0 24 24" fill="none" stroke="#94a3b8" stroke-width="1.5" stroke-linecap="round" stroke-linejoin="round" class="lucide lucide-external-link" aria-hidden="true"><path d="M15 3h6v6"></path><path d="M10 14 21 3"></path><path d="M18 13v6a2 2 0 0 1-2 2H5a2 2 0 0 1-2-2V8a2 2 0 0 1 2-2h6"></path></svg></g><text x="74" y="22" text-anchor="middle" font-size="12" font-weight="500" fill="#e6edf7" font-family="inherit">Claude LLM</text></g><g transform="translate(824, 10)" opacity="1"><rect width="128" height="36" rx="8" fill="#0c1426" stroke="#38bdf8" stroke-width="1.4"></rect><g transform="translate(12, 11)"><svg xmlns="http://www.w3.org/2000/svg" width="14" height="14" viewBox="0 0 24 24" fill="none" stroke="#38bdf8" stroke-width="1.5" stroke-linecap="round" stroke-linejoin="round" class="lucide lucide-server" aria-hidden="true"><rect width="20" height="8" x="2" y="2" rx="2" ry="2"></rect><rect width="20" height="8" x="2" y="14" rx="2" ry="2"></rect><line x1="6" x2="6.01" y1="6" y2="6"></line><line x1="6" x2="6.01" y1="18" y2="18"></line></svg></g><text x="74" y="22" text-anchor="middle" font-size="12" font-weight="500" fill="#e6edf7" font-family="inherit">Judge</text></g><g transform="translate(992.5, 10)" opacity="1"><rect width="135" height="36" rx="8" fill="#0c1426" stroke="#34d399" stroke-width="1.4"></rect><g transform="translate(12, 11)"><svg xmlns="http://www.w3.org/2000/svg" width="14" height="14" viewBox="0 0 24 24" fill="none" stroke="#34d399" stroke-width="1.5" stroke-linecap="round" stroke-linejoin="round" class="lucide lucide-database" aria-hidden="true"><ellipse cx="12" cy="5" rx="9" ry="3"></ellipse><path d="M3 5V19A9 3 0 0 0 21 19V5"></path><path d="M3 12A9 3 0 0 0 21 12"></path></svg></g><text x="77.5" y="22" text-anchor="middle" font-size="12" font-weight="500" fill="#e6edf7" font-family="inherit">Results store</text></g><g transform="translate(0, 56)"><g opacity="1"><path d="M 32 24 L 422 24 L 432 34 L 432 88 L 32 88 Z" fill="#0c1426" stroke="#2c3e63" stroke-width="1.2"></path><path d="M 422 24 L 422 34 L 432 34" fill="none" stroke="#2c3e63" stroke-width="1.2"></path><text x="40" y="43" font-size="11" fill="#e6edf7" font-family="inherit">Worker already produced experiment_file (see happy path)</text></g><g opacity="1"><line x1="232" y1="96" x2="882" y2="96" stroke="#cbd5e1" stroke-width="1.4" marker-end="url(#seq-arrow-filled)"></line><text x="560" y="90" text-anchor="middle" font-size="11" fill="#e6edf7" font-family="inherit">score(experiment_file)</text></g><g opacity="1"><line x1="888" y1="152" x2="238" y2="152" stroke="#cbd5e1" stroke-width="1.4" stroke-dasharray="4 4" marker-end="url(#seq-arrow-open)"></line><text x="560" y="146" text-anchor="middle" font-size="11" fill="#e6edf7" font-family="inherit">ERROR — no metrics</text></g><g opacity="1"><rect x="220" y="208" width="852" height="616" rx="4" fill="none" stroke="#6366f1" stroke-width="1.2" opacity="0.6"></rect><rect x="220" y="208" width="36" height="18" rx="4" fill="#6366f1" opacity="0.8"></rect><text x="226" y="221" font-size="10" font-weight="600" fill="#fff" font-family="inherit">alt</text><text x="262" y="221" font-size="10" fill="#6366f1" font-family="inherit">[fixes vs max_fix_calls]</text><g><text x="226" y="244" font-size="10" fill="#6366f1" font-family="inherit">[retry: fixes &lt; max]</text><g opacity="1"><path d="M 112.5 232 L 501.5 232 L 511.5 242 L 511.5 296 L 112.5 296 Z" fill="#0c1426" stroke="#2c3e63" stroke-width="1.2"></path><path d="M 501.5 232 L 501.5 242 L 511.5 242" fill="none" stroke="#2c3e63" stroke-width="1.2"></path><text x="120.5" y="251" font-size="11" fill="#e6edf7" font-family="inherit">Resume the same Worker session with the error text</text></g><g opacity="1"><line x1="232" y1="304" x2="386" y2="304" stroke="#cbd5e1" stroke-width="1.4" marker-end="url(#seq-arrow-filled)"></line><text x="312" y="298" text-anchor="middle" font-size="11" fill="#e6edf7" font-family="inherit">run(fixPrompt, schema, resume)</text></g><g opacity="1"><line x1="392" y1="360" x2="554" y2="360" stroke="#cbd5e1" stroke-width="1.4" marker-end="url(#seq-arrow-filled)"></line><text x="476" y="354" text-anchor="middle" font-size="11" fill="#e6edf7" font-family="inherit">run(prompt, resume)</text></g><g opacity="1"><line x1="560" y1="416" x2="722" y2="416" stroke="#cbd5e1" stroke-width="1.4" marker-end="url(#seq-arrow-filled)"></line><text x="644" y="410" text-anchor="middle" font-size="11" fill="#e6edf7" font-family="inherit">claude -p --resume</text></g><g opacity="1"><line x1="728" y1="472" x2="566" y2="472" stroke="#cbd5e1" stroke-width="1.4" stroke-dasharray="4 4" marker-end="url(#seq-arrow-open)"></line><text x="644" y="466" text-anchor="middle" font-size="11" fill="#e6edf7" font-family="inherit">assistant reply</text></g><g opacity="1"><line x1="560" y1="528" x2="238" y2="528" stroke="#cbd5e1" stroke-width="1.4" stroke-dasharray="4 4" marker-end="url(#seq-arrow-open)"></line><text x="396" y="522" text-anchor="middle" font-size="11" fill="#e6edf7" font-family="inherit">{experiment_file, valid}</text></g><g opacity="1"><line x1="232" y1="584" x2="882" y2="584" stroke="#cbd5e1" stroke-width="1.4" marker-end="url(#seq-arrow-filled)"></line><text x="560" y="578" text-anchor="middle" font-size="11" fill="#e6edf7" font-family="inherit">score(experiment_file)</text></g><g opacity="1"><line x1="888" y1="640" x2="238" y2="640" stroke="#cbd5e1" stroke-width="1.4" stroke-dasharray="4 4" marker-end="url(#seq-arrow-open)"></line><text x="560" y="634" text-anchor="middle" font-size="11" fill="#e6edf7" font-family="inherit">JSON metrics</text></g><g opacity="1"><line x1="232" y1="696" x2="1054" y2="696" stroke="#cbd5e1" stroke-width="1.4" marker-end="url(#seq-arrow-filled)"></line><text x="646" y="690" text-anchor="middle" font-size="11" fill="#e6edf7" font-family="inherit">append(record)</text></g><line x1="220" y1="752" x2="1072" y2="752" stroke="#6366f1" stroke-width="1" stroke-dasharray="4 2" opacity="0.5"></line></g><g><text x="226" y="768" font-size="10" fill="#6366f1" font-family="inherit">[give up: fixes == max]</text><g opacity="1"><line x1="232" y1="756" x2="1054" y2="756" stroke="#cbd5e1" stroke-width="1.4" marker-end="url(#seq-arrow-filled)"></line><text x="646" y="750" text-anchor="middle" font-size="11" fill="#e6edf7" font-family="inherit">append(invalid record)</text></g></g></g></g></svg>
